<svg height="511pt" viewBox="-37 0 511 511.9277" width="511pt" xmlns="http://www.w3.org/2000/svg"><path d="m403.316406 307.125c-11.761718 18.976562-26.121094 36.210938-42.667968 51.199219-9.472657 9.300781-28.074219 14.078125-44.800782 16.042969 13.644532-8.949219 14.449219-21.820313 20.785156-34.277344 7.136719-14.035156 18.992188-27.550782 20.347657-34.332032 12.371093-3.839843 20.734375-7.167968 20.734375-7.167968 3.921875-2.125 7.632812-4.613282 11.09375-7.421875 2.648437-2.082031 5.183594-4.304688 7.59375-6.65625 8.792968 3.15625 15.617187 9.554687 6.914062 22.613281zm0 0" fill="#7facfa"/><path d="m365.34375 305.585938c-2.5625 12.800781-12.117188 49.582031-41.132812 68.609374-7.726563.949219-15.511719 1.320313-23.292969 1.109376.550781-.265626 1.121093-.492188 1.703125-.683594 16.363281-6.011719 14.179687-25.042969 22.300781-39.402344 5.941406-10.496094 23.242187-15.484375 28.21875-26.046875 4.351563-1.191406 8.449219-2.390625 12.203125-3.585937zm0 0" fill="#a4c2f7"/><path d="m352.117188 51.125c-63.148438-28.078125-97.453126-45.996094-145.578126-42.070312-11.351562.992187-22.597656 2.933593-33.621093 5.800781-66.5625 16.640625-67.84375 43.09375-91.992188 52.566406 12.738281 6.523437 19.097657 21.132813 15.191407 34.902344-3.925782 15.613281-19.371094 15.1875-28.332032 15.1875h-.085937c-5.058594 3.273437-9.777344 7.046875-14.078125 11.265625-4.898438 4.066406-8.019532 9.882812-8.703125 16.210937-.015625.316407.011719.632813.082031.941407.570312 6.09375 1.570312 12.136718 2.988281 18.089843 1.738281-3.335937 3.734375-6.53125 5.972657-9.558593 6.484374-8.617188 15.789062-14.847657 25.089843-.9375 17.066407 25.601562 0 42.667968-8.535156 42.667968-3.414063 0-8.363281-4.269531-12.96875-9.300781-3.074219-3.414063-6.058594-7.167969-8.363281-10.242187-.035156 6.808593-1.859375 13.488281-5.292969 19.371093-4.132813 6.765625-9.589844 12.628907-16.042969 17.238281-17.492187 13.140626-10.324218 21.757813.855469 27.050782 2.542969 1.199218 5.167969 2.226562 7.851563 3.070312 3.667968 1.195313 7.167968 2.046875 10.066406 2.730469 4.011718.855469 6.828125 1.28125 6.828125 1.28125s1.367187.851563 3.839843 2.21875c.425782.253906.9375.597656 1.449219.851563 1.625.941406 3.671875 2.050781 5.976563 3.328124 2.472656 1.28125 5.117187 11.351563 8.191406 12.886719h.085938c2.984374 1.535157 6.3125 3.242188 9.8125 4.949219 2.472656 1.195312 5.035156 2.390625 7.679687 3.582031 2.816406 1.28125 5.800781 2.648438 8.789063 3.839844.625.289063 1.285156.492187 1.960937.597656 5.890625 1.109375 11.863281-3.410156 17.75-1.449219 3.839844 1.28125 7.59375 2.390626 11.265625 3.328126 11.886719 2.453124 23.964844 3.882812 36.09375 4.265624l30.210938 1.792969c28.5 1.960938 56.574218 5.886719 70.226562 19.542969 4.234375 3.976562 9.496094 6.695312 15.191406 7.847656 3.585938.863282 7.242188 1.40625 10.921875 1.621094h.085938l.597656.515625 51.199219-7.765625c11.164062-3 22.15625-6.589844 32.9375-10.753906 3.921875-2.125 7.632812-4.613282 11.09375-7.421875 2.648437-2.082031 5.183594-4.304688 7.59375-6.65625 21.53125-20.871094 33.328125-49.8125 32.515625-79.789063 0-68.265625 0-119.464844-76.800781-153.597656zm-187.734376 128c-6.800781 1.859375-14.046874 1.191406-20.394531-1.878906-21.84375-9.300782-41.644531-38.484375-22.273437-57.855469 1.242187-1.265625 2.554687-2.460937 3.925781-3.585937 22.613281-18.429688 31.148437 12.546874 47.277344 20.652343 9.917969 4.796875 16.449219 14.597657 17.066406 25.601563 0 0 0 8.53125-25.601563 17.066406zm0 0" fill="#cad9fc"/><path d="m326.515625 51.125c-51.457031-22.871094-83.710937-39-119.976563-42.070312-11.351562.992187-22.597656 2.933593-33.621093 5.800781-66.5625 16.640625-67.84375 43.09375-91.992188 52.566406 12.738281 6.523437 19.097657 21.132813 15.191407 34.902344-3.925782 15.613281-19.371094 15.1875-28.332032 15.1875h-.085937c-5.058594 3.273437-9.777344 7.046875-14.078125 11.265625-4.898438 4.066406-8.019532 9.882812-8.703125 16.210937-.015625.316407.011719.632813.082031.941407 3.582031 1.519531 6.558594 4.191406 8.449219 7.59375.21875.285156.390625.601562.511719.9375 7.464843 9.167968 8.867187 21.855468 3.585937 32.429687-2.4375 4.976563-7.152344 8.449219-12.628906 9.300781-.351563.027344-.703125-.03125-1.027344-.171875-4.132813 6.765625-9.589844 12.628907-16.042969 17.238281-17.492187 13.140626-10.324218 21.757813.855469 27.050782 2.542969 1.199218 5.167969 2.226562 7.851563 3.070312 3.667968 1.195313 7.167968 2.046875 10.066406 2.730469 4.011718.855469 6.828125 1.28125 6.828125 1.28125s1.367187.851563 3.839843 2.21875c.425782.253906.9375.597656 1.449219.851563 1.625.941406 3.671875 2.050781 5.976563 3.328124 2.472656 1.28125 5.117187 11.351563 8.191406 12.886719h.085938c2.984374 1.535157 6.3125 3.242188 9.8125 4.949219 2.472656 1.195312 5.035156 2.390625 7.679687 3.582031 2.816406 1.28125 5.800781 2.648438 8.789063 3.839844.625.289063 1.285156.492187 1.960937.597656 5.890625 1.109375 11.863281-3.410156 17.75-1.449219 3.839844 1.28125 7.59375 2.390626 11.265625 3.328126 11.886719 2.453124 23.964844 3.882812 36.09375 4.265624l30.210938 1.792969c28.5 1.960938 56.574218 5.886719 70.226562 19.542969 4.234375 3.976562 9.496094 6.695312 15.191406 7.847656l37.203125-5.628906c11.164063-3 22.160157-6.589844 32.941407-10.753906 3.917968-2.125 7.632812-4.613282 11.09375-7.421875 2.648437-2.082031 5.183593-4.304688 7.59375-6.65625 21.53125-20.871094 33.324218-49.8125 32.511718-79.789063 0-68.265625 0-119.464844-76.800781-153.597656zm-187.734375 128c-25.597656 8.53125-68.265625-34.136719-42.664062-59.734375 13.226562-13.226563 21.929687-10.496094 29.523437-3.585937 7.167969 6.402343 13.484375 16.472656 21.675781 20.652343 9.917969 4.796875 16.453125 14.597657 17.066406 25.601563 0 0 0 7.335937-20.394531 15.1875-1.621093.597656-3.328125 1.28125-5.207031 1.878906zm0 0" fill="#e8edfc"/><path d="m96.117188 102.324219c-3.925782 15.613281-19.371094 15.1875-28.332032 15.1875-3.582031-15.445313-6.996094-43.261719 11.265625-49.320313.652344-.183594 1.28125-.441406 1.875-.769531 12.738281 6.523437 19.097657 21.132813 15.191407 34.902344zm0 0" fill="#cad9fc"/><path d="m189.984375 162.058594s0 8.53125-25.601563 17.066406c-6.800781 1.859375-14.046874 1.191406-20.394531-1.878906-21.84375-9.300782-41.644531-38.484375-22.273437-57.855469 1.242187-1.265625 2.554687-2.460937 3.925781-3.585937 22.613281-18.429688 31.148437 12.546874 47.277344 20.652343 9.917969 4.796875 16.449219 14.597657 17.066406 25.601563zm0 0" fill="#cad9fc"/><path d="m164.382812 162.058594s0 7.335937-20.394531 15.1875c-21.84375-9.300782-41.644531-38.484375-22.273437-57.855469 1.242187-1.265625 2.554687-2.460937 3.925781-3.585937 7.167969 6.402343 13.484375 16.472656 21.675781 20.652343 9.917969 4.796875 16.453125 14.597657 17.066406 25.601563zm0 0" fill="#e8edfc"/><path d="m70.515625 196.191406c-5.800781 0-15.699219-12.035156-21.332031-19.542968 0-4.210938-.402344-8.410157-1.195313-12.542969v-.085938c5.71875-10.835937 18.347657-29.527343 31.0625-10.496093 17.066407 25.601562 0 42.667968-8.535156 42.667968zm0 0" fill="#e8edfc"/><path d="m352.117188 290.058594c-1.675782 6.695312-4.136719 13.167968-7.339844 19.285156-11.777344 25-22.1875 55.039062-50.515625 65.449219-.585938.191406-1.15625.417969-1.707031.683593h-.171876c-22.527343 8.53125-44.03125 19.625-67.667968 23.636719.765625-2.242187.765625-4.671875 0-6.914062-1.964844-6.570313-8.109375-13.226563-7.253906-20.050781 1.195312-9.984376 15.101562-19.96875 15.101562-25.089844 9.570312-.035156 19.035156-2.007813 27.820312-5.800782 12.546876-5.789062 23.828126-13.996093 33.195313-24.148437 1.589844-1.792969 3.269531-3.5 5.035156-5.121094 4.140625-4.011719 7.78125-8.507812 10.835938-13.398437 3.539062-5.59375 8.40625-10.222656 14.164062-13.480469 14.335938-7.765625 28.503907-1.367187 28.503907 4.949219zm0 0" fill="#cad9fc"/><path d="m326.515625 290.058594c-1.671875 6.695312-4.136719 13.167968-7.339844 19.285156-11.773437 25-22.183593 55.039062-50.515625 65.449219-.582031.191406-1.152344.417969-1.707031.683593h-.171875c-14.164062 5.375-27.902344 11.773438-42.066406 16.722657-1.964844-6.570313-8.109375-13.226563-7.253906-20.050781 1.195312-9.984376 15.101562-19.96875 15.101562-25.089844 9.570312-.035156 19.035156-2.007813 27.820312-5.800782 12.546876-5.789062 23.828126-13.996093 33.195313-24.148437 1.589844-1.792969 3.269531-3.5 5.035156-5.121094 4.140625-4.011719 7.78125-8.507812 10.835938-13.398437 3.539062-5.59375 8.40625-10.222656 14.164062-13.480469 1.664063 1.128906 2.726563 2.945313 2.902344 4.949219zm0 0" fill="#cad9fc"/><path d="m232.5625 347.058594c.175781 17.660156-2.472656 35.234375-7.847656 52.054687-5.832032 1.058594-11.742188 1.601563-17.664063 1.621094l-.171875-.085937c4.097656-9.128907-9.898437-20.308594-8.363281-33.792969 0 0 18.945313-9.300781 20.054687-20.136719 4.652344.414062 9.328126.53125 13.992188.339844zm0 0" fill="#cad9fc"/><path d="m218.570312 346.71875c-1.109374 10.835938-2.988281 20.136719-2.988281 20.136719-1.148437 11.644531-4.082031 23.042969-8.703125 33.792969-9.910156 24.613281-33.082031 41.34375-59.5625 43.007812-7.75 18.074219-21.828125 32.699219-39.59375 41.132812h-.085937c-.492188.316407-1.007813.601563-1.535157.851563-1.699218 3.753906-3.179687 7.597656-4.4375 11.519531-.96875 3.644532-4.25 6.195313-8.023437 6.230469h-82.859375c-1.566406-5.542969-2.085938-11.332031-1.535156-17.066406 1.535156-28.503907 18.601562-68.265625 18.601562-68.265625 0-42.667969 0-42.667969 34.136719-85.335938 21.671875-27.136718 8.957031-61.097656-3.246094-82.261718 1.625.941406 3.671875 2.050781 5.976563 3.328124 6.65625 3.585938 15.699218 8.277344 25.769531 12.886719 6.058594 2.816407 12.542969 5.546875 19.027344 8.105469 3.160156 1.195312 6.316406 2.390625 9.472656 3.414062 3.78125 9.25 3.902344 19.589844.34375 28.929688 4.996094 2.976562 8.59375 7.832031 9.984375 13.480469 1.5625 6.875 1.054688 14.0625-1.453125 20.652343 0 0 7.082031-4.949218 33.707031-4.609374 4.949219 0 10.582032.171874 16.894532.683593h.085937c.585937-4.457031 1.558594-8.855469 2.902344-13.140625-6.132813-12.339844-11.1875-25.191406-15.105469-38.402344-1.160156-4.171874-1.820312-8.46875-1.960938-12.800781.300782-8.390625 6.167969-15.546875 14.335938-17.492187 2.761719-1.027344 5.855469-.535156 8.160156 1.300781 2.308594 1.832031 3.484375 4.738281 3.105469 7.660156.214844 5.546875 1.425781 11.011719 3.582031 16.128907.855469 2.304687 1.878906 4.691406 2.988282 6.996093 1.523437 3.125 3.203124 6.171875 5.035156 9.128907 1.277344 2.21875 2.644531 4.269531 4.007812 6.230468 2.914063 4.546875 6.257813 8.804688 9.984375 12.714844 4.523438 4.523438 4.265625 18.773438 2.988281 31.0625zm0 0" fill="#cad9fc"/><path d="m206.28125 329.652344c-1.109375 10.835937-2.988281 20.136718-2.988281 20.136718-1.144531 11.644532-4.082031 23.042969-8.703125 33.792969-9.910156 24.613281-33.078125 41.34375-59.5625 43.007813-7.75 18.074218-21.828125 32.699218-39.59375 41.132812h-.085938c-.492187.316406-1.007812.601563-1.535156.851563-1.773438 3.722656-3.253906 7.570312-4.4375 11.519531-1.109375 3.667969 10.496094 23.296875 6.742188 23.296875h-85.335938c3.554688-28.832031 9.257812-57.355469 17.066406-85.332031 0-42.667969 0-42.667969 34.136719-85.335938 21.671875-27.136718 8.957031-61.097656-3.246094-82.261718 1.625.941406 3.671875 2.050781 5.976563 3.328124 6.65625 3.585938 15.699218 8.277344 25.769531 12.886719 6.058594 2.816407 12.542969 5.546875 19.027344 8.105469.429687 5.292969 5.976562 2.050781 3.671875 6.742188 0 0 17.066406 8.535156 8.53125 34.132812 0 0-2.898438 6.230469 7.597656 4.949219 1.5625 6.875 1.054688 14.0625-1.453125 20.652343 0 0 7.082031-4.949218 33.707031-4.609374 4.949219 0 10.582032.171874 16.894532.683593h.085937c.585937-4.457031 1.558594-8.855469 2.902344-13.140625-6.132813-12.339844-11.1875-25.191406-15.105469-38.402344-1.160156-4.171874-1.820312-8.46875-1.960938-12.800781.300782-8.390625 6.167969-15.546875 14.335938-17.492187.683594 2.726562 1.539062 5.40625 2.558594 8.023437.855468 2.300781 1.878906 4.691407 2.988281 6.996094 4.671875 9.414063 10.492187 18.210937 17.324219 26.195313.59375.683593 1.109375 1.28125 1.703125 1.878906 1.136719 1.226562 1.929687 2.726562 2.304687 4.351562 1.8125 8.792969 2.046875 17.835938.683594 26.710938zm0 0" fill="#e8edfc"/><path d="m106.101562 485.640625c-1.71875 3.75-3.199218 7.601563-4.429687 11.539063-.984375 3.628906-4.253906 6.164062-8.015625 6.210937h-17.59375c-.066406-.070313-.097656-.164063-.085938-.257813-.371093-2.226562.15625-4.515624 1.46875-6.355468 1.308594-1.839844 3.300782-3.082032 5.53125-3.457032 8.054688-1.367187 15.851563-3.957031 23.125-7.679687-.511718.339844.511719-.253906 0 0zm0 0" fill="#cbb292"/><path d="m79.050781 263.601562c2.472657 1.28125 16.382813 1.539063 19.453125 3.074219h.085938" fill="#fff"/><path d="m27.847656 418.058594s-17.066406 39.761718-18.601562 68.265625c-.550782 5.734375-.03125 11.523437 1.535156 17.066406h25.601562c-1.566406-5.542969-2.085937-11.332031-1.535156-17.066406 1.535156-28.503907 18.601563-68.265625 18.601563-68.265625 0-42.667969 0-42.667969 34.132812-85.335938 11.929688-15.738281 15.152344-36.417968 8.574219-55.039062-1.914062-.828125-3.855469-1.652344-5.671875-2.476563-2.644531-1.191406-5.207031-2.386719-7.679687-3.582031-3.5-1.707031-6.828126-3.414062-9.8125-4.949219h-.085938c-4.640625-2.320312-3.441406-10.429687-8.191406-12.886719 8.324218 4.808594 16.929687 9.109376 25.769531 12.886719.726563.339844 1.503906.660157 2.242187.996094-2.507812-6.289063-16.71875-2.3125-19.652343-7.394531-.511719-.257813-1.023438-.597656-1.449219-.855469-2.472656-1.363281-3.839844-2.21875-3.839844-2.21875s-2.816406-.425781-6.828125-1.28125c-2.898437-.679687 4.867188-11.347656 1.195313-12.542969-2.683594-.84375-5.304688-1.871094-7.847656-3.070312-11.179688-5.292969-18.347657-13.910156-.855469-27.050782 6.453125-4.609374 11.90625-10.472656 16.042969-17.238281l.042968-.085937c-.574218-.078125-1.140625-.226563-1.679687-.445313-.257813-.113281-.539063-.300781-.804688-.445312-.773437-.414063-1.519531-.878907-2.226562-1.398438-.335938-.242187-.671875-.515625-1.011719-.785156-.714844-.574219-1.4375-1.195313-2.171875-1.867187-.410156-.378907-.816406-.757813-1.226563-1.160157-.613281-.597656-1.222656-1.234375-1.832031-1.878906-.339843-.363281-.679687-.71875-1.023437-1.09375l-.011719.03125c-.144531-.160156-.273437-.328125-.414063-.488281-1.34375-1.492188-2.449218-3.023438-3.683593-4.542969-.171875-.214844-.511719-.40625-.683594-.621094-1.292969-1.609375-2.527344-3.1875-3.582031-4.589843-.035156 6.808593-1.859375 13.488281-5.292969 19.371093-4.132813 6.765625-9.589844 12.628907-16.042969 17.238281-17.492187 13.140626-10.324218 21.757813.855469 27.050782 2.542969 1.199218 5.167969 2.226562 7.851563 3.070312 3.667968 1.195313 7.167968 2.046875 10.066406 2.730469 4.011718.855469 6.828125 1.28125 6.828125 1.28125s1.367187.851563 3.839843 2.21875c.425782.253906.9375.597656 1.449219.851563 12.203125 21.164062 24.917969 55.125 3.246094 82.261718-34.136719 42.667969-34.136719 42.667969-34.136719 85.335938zm0 0" fill="#fff"/><path d="m53.449219 181.859375c1.234375 1.519531 2.355469 3.054687 3.683593 4.542969.140626.160156.285157.300781.425782.457031-15.886719 27.089844-16.753906-52.835937-3.582032-32.378906l-.1875.238281c-1.109374 1.480469-2.144531 3.023438-3.082031 4.546875l-.078125.121094c-.992187 1.617187-1.878906 3.199219-2.640625 4.632812v.085938c.796875 4.136719 1.195313 8.335937 1.195313 12.546875 1.058594 1.410156 2.292968 2.984375 3.585937 4.589844.160157.203124.507813.410156.679688.617187zm0 0" fill="#fff"/><path d="m93.300781 117.511719h.085938c-3.585938-15.445313-7-43.261719 11.261719-49.320313.65625-.183594 1.285156-.441406 1.878906-.769531 24.148437-9.472656 25.429687-35.925781 91.988281-52.566406 11.023437-2.863281 22.265625-4.804688 33.613281-5.800781-8.515625-.714844-17.074218-.714844-25.589844 0-11.351562.992187-22.597656 2.933593-33.621093 5.800781-66.5625 16.640625-67.84375 43.09375-91.992188 52.566406-.59375.328125-1.222656.585937-1.875.769531-18.261719 6.058594-14.847656 33.875-11.265625 49.320313h-.085937c-5.058594 3.273437-9.777344 7.046875-14.078125 11.265625-4.898438 4.066406-8.019532 9.882812-8.703125 16.210937-.015625.316407.011719.632813.082031.941407.570312 6.09375 1.570312 12.136718 2.988281 18.089843.757813-1.441406 1.648438-3.023437 2.636719-4.632812l.078125-.121094c.9375-1.523437 1.972656-3.0625 3.085937-4.550781.0625-.082032.109376-.167969.171876-.253906l.011718.019531c.132813-.179688.273438-.355469.410156-.53125.484376-.621094.988282-1.21875 1.5-1.804688.3125-.359375.625-.726562.949219-1.066406.683594-.722656 1.402344-1.410156 2.160157-2.054687.316406-.273438.648437-.496094.972656-.742188.546875-.417969 1.113281-.800781 1.707031-1.152344.320313-.191406.640625-.382812.96875-.546875.839844-.429687 1.726563-.757812 2.644531-.976562.195313-.046875.398438-.042969.597656-.078125.789063-.128906 1.597657-.15625 2.394532-.078125.257812.023437.511718.046875.769531.089843.535156.136719 1.058594.316407 1.566406.535157l-.011719-.144531c-.070312-.308594-.097656-.625-.085937-.941407" fill="#fff"/><g fill="#428dff"><path d="m292.980469 325.128906c-11.851563.113282-23.328125-4.148437-32.230469-11.972656-11.925781-11.925781-39.441406-15.316406-64.785156-17.0625-4.65625-.378906-8.140625-4.433594-7.820313-9.09375.324219-4.660156 4.332031-8.195312 8.996094-7.929688 29.929687 2.058594 59.808594 6.152344 75.675781 22.019532 5.832032 4.691406 13.136719 7.167968 20.621094 6.988281 4.59375.273437 8.144531 4.144531 8.019531 8.746094-.121093 4.601562-3.875 8.277343-8.476562 8.304687zm0 0"/><path d="m344.777344 317.875c-4.402344.019531-8.097656-3.308594-8.535156-7.6875-.441407-4.382812 2.523437-8.378906 6.84375-9.230469 10.632812-2.875 21.109374-6.300781 31.386718-10.261719 3.15625-1.867187 6.179688-3.949218 9.046875-6.230468 24.167969-19.285156 37.832031-48.835938 36.863281-79.742188 0-68.597656 0-113.917968-71.734374-145.804687l-16.699219-7.464844c-64.386719-28.882813-96.695313-43.378906-156.960938-28.320313-41.089843 10.273438-55.707031 24.222657-67.445312 35.433594-6.488281 7.019532-14.3125 12.667969-23.019531 16.609375-1 .503907-2.046876.910157-3.125 1.214844-12.714844 4.226563-6.648438 33.386719-5.300782 39.1875 1.050782 4.585937-1.804687 9.15625-6.386718 10.21875-4.582032 1.066406-9.160157-1.78125-10.234376-6.359375-7.367187-31.710938-1.214843-53.34375 16.886719-59.347656.46875-.230469.953125-.433594 1.449219-.609375 6.808594-3.171875 12.914062-7.679688 17.945312-13.257813 12.5-11.933594 29.628907-28.277344 75.085938-39.644531 65.992188-16.492187 102.257812-.222656 168.089844 29.304687l16.648437 7.445313c81.867188 36.382813 81.867188 91.550781 81.867188 161.394531 1.015625 36.152344-15.054688 70.667969-43.378907 93.160156-3.90625 3.167969-8.105468 5.960938-12.539062 8.339844-11.285156 4.441406-22.816406 8.234375-34.535156 11.359375-.722656.191407-1.46875.292969-2.21875.292969zm0 0"/><path d="m67.785156 126.046875h-.085937c-4.703125-.023437-8.5-3.851563-8.488281-8.554687.011718-4.707032 3.828124-8.511719 8.53125-8.511719 4.703124 0 8.523437 3.804687 8.535156 8.511719.011718 4.703124-3.789063 8.53125-8.492188 8.554687zm0 0"/><path d="m166.355469 294.324219c-.175781 0-.351563-.003907-.53125-.019531-12.667969-.378907-25.277344-1.890626-37.679688-4.511719-3.867187-.988281-7.820312-2.15625-11.859375-3.503907-21.386718-7.597656-42.046875-17.101562-61.734375-28.394531-1.71875-.964843-3.089843-1.757812-4.035156-2.316406-10.539063-1.683594-37.113281-7.488281-41.207031-23.484375-2.222656-8.683594 2.289062-17.316406 13.421875-25.664062 15.664062-11.753907 17.808593-22.15625 17.917969-29.90625-.007813-3.6875-.367188-7.367188-1.074219-10.984376-.023438-.136718-.042969-.277343-.058594-.414062-.339844-1.824219-.707031-3.601562-1.0625-5.328125-1.1875-4.851563-1.882813-9.8125-2.070313-14.808594.570313-8.648437 4.632813-16.695312 11.253907-22.292969 4.71875-4.648437 9.917969-8.785156 15.507812-12.34375 3.949219-2.453124 9.136719-1.296874 11.664063 2.605469 2.53125 3.902344 1.472656 9.109375-2.378906 11.710938-4.578126 2.910156-8.839844 6.285156-12.714844 10.082031-3.234375 2.566406-5.453125 6.195312-6.265625 10.238281.226562 3.828125.796875 7.628907 1.710937 11.351563.417969 1.996094.84375 4.050781 1.222656 6.164062.035157.199219.066407.390625.085938.585938.84375 4.523437 1.261719 9.117187 1.246094 13.722656-.667969 17.601562-9.910156 33.765625-24.746094 43.269531-6.816406 5.113281-7.121094 7.785157-7.121094 7.808594.8125 3.222656 14.265625 8.976563 28.808594 11.054687 1.144531.164063 2.242188.558594 3.230469 1.160157.066406.035156 1.925781 1.164062 5.039062 2.925781 18.753907 10.714844 38.410157 19.773438 58.738281 27.0625 3.660157 1.21875 7.21875 2.273438 10.699219 3.164062 11.371094 2.285157 22.910157 3.628907 34.5 4.019532 4.59375.289062 8.128907 4.171875 7.992188 8.769531-.136719 4.601563-3.898438 8.265625-8.503907 8.277344zm0 0"/><path d="m10.78125 511.925781c-3.671875 0-6.933594-2.351562-8.09375-5.835937-8.746094-26.242188 11.886719-78.390625 16.628906-89.761719.023438-43.128906 1.132813-45.347656 36.003906-88.933594 18.203126-22.792969 7.886719-52.101562-3.972656-72.671875-2.273437-4.074218-.851562-9.21875 3.191406-11.550781 4.042969-2.328125 9.207032-.980469 11.59375 3.027344 20.511719 35.578125 21.40625 68.199219 2.515626 91.847656-32.265626 40.335937-32.265626 40.335937-32.265626 80.011719 0 1.152344-.234374 2.296875-.6875 3.355468-9.398437 21.960938-22.277343 62.898438-16.816406 79.277344.863282 2.601563.425782 5.460938-1.175781 7.6875-1.605469 2.222656-4.175781 3.542969-6.921875 3.546875zm0 0"/><path d="m101.832031 511.921875c-3.144531-.132813-6.054687-1.710937-7.886719-4.273437-2.683593-4.125-2.78125-9.40625 4.359376-25.476563 1.203124-2.835937 3.847656-4.804687 6.910156-5.148437 3.066406-.339844 6.074218 1 7.875 3.503906 1.800781 2.503906 2.109375 5.785156.804687 8.578125-1.660156 3.5625-3.058593 7.238281-4.179687 11.003906 1.097656 2.636719.804687 5.644531-.78125 8.015625-1.582032 2.375-4.246094 3.800781-7.101563 3.796875zm0 0"/><path d="m79.039062 503.390625c-4.429687-.011719-8.113281-3.410156-8.480468-7.824219-.367188-4.414062 2.703125-8.378906 7.070312-9.121094.464844-.085937 46.738282-8.390624 61.761719-45.960937 1.300781-3.238281 4.4375-5.359375 7.925781-5.359375 2.085938-.023438 52.242188-1.328125 59.785156-69.207031.285157-3.074219 2.203126-5.757813 5.023438-7.015625 2.820312-1.257813 6.101562-.894532 8.578125.953125 2.472656 1.847656 3.757813 4.886719 3.359375 7.945312-7.644531 68.78125-54.382812 81.507813-70.941406 83.863281-20.285156 42.417969-70.46875 51.246094-72.667969 51.613282-.464844.074218-.9375.113281-1.414063.113281zm0 0"/><path d="m296.90625 384.082031c-1.675781 0-3.238281-.03125-4.675781-.078125-4.664063-.167968-8.34375-4.023437-8.296875-8.6875.046875-4.636718 3.816406-8.367187 8.449218-8.375h.171876c19.046874.699219 50.601562-3.390625 62.117187-14.703125 16.125-14.574219 30.113281-31.355469 41.542969-49.847656 2.476562-3.710937 2.757812-5.84375 2.539062-6.519531-.199218-.609375-1.53125-1.996094-5.234375-3.328125-2.9375-.976563-5.117187-3.46875-5.691406-6.511719s.542969-6.160156 2.921875-8.140625c2.378906-1.984375 5.648438-2.519531 8.535156-1.40625 7.160156 1.921875 12.976563 7.132813 15.671875 14.039063 1.949219 7.429687.265625 15.339843-4.542969 21.332031-12.070312 19.472656-26.808593 37.160156-43.78125 52.550781-15.984374 15.703125-50.238281 19.675781-69.726562 19.675781zm0 0"/><path d="m181.457031 375.390625c-3.234375.007813-6.195312-1.820313-7.640625-4.71875-8.054687-16.105469-3.6875-37.40625-1.480468-45.703125-4.46875-9.355469-16.488282-35.96875-16.488282-51.980469.378906-14.175781 11.617188-25.671875 25.785156-26.367187 4.449219-.085938 8.746094 1.609375 11.9375 4.707031 3.371094 3.519531 5.15625 8.261719 4.945313 13.128906 0 13.6875 14.957031 37.019531 23.101563 45.167969 10.230468 10.230469 5.851562 41.300781 2.332031 58.90625-.976563 4.566406-5.441407 7.496094-10.015625 6.582031-4.578125-.914062-7.570313-5.339843-6.71875-9.925781 3.765625-18.875 4.789062-39.710938 2.148437-43.714844-9.304687-9.273437-27.914062-36.679687-27.914062-57.015625.003906-.253906-.011719-.511719-.042969-.761719-1.652344.214844-3.214844.886719-4.511719 1.933594-2.386719 1.710938-3.851562 4.425782-3.976562 7.359375 0 10.96875 9.914062 34.886719 16.164062 47.386719 1.007813 2.019531 1.175781 4.355469.46875 6.5-2.050781 6.21875-6.128906 24.84375-.46875 36.164062 1.324219 2.644532 1.183594 5.785157-.371093 8.300782-1.550782 2.515625-4.296876 4.046875-7.253907 4.050781zm0 0"/><path d="m127.699219 350c-2.773438-.011719-5.367188-1.375-6.949219-3.652344-1.582031-2.28125-1.949219-5.1875-.988281-7.789062 6.121093-18.367188-4.148438-23.75-4.253907-23.800782-4.203124-2.105468-5.914062-7.210937-3.828124-11.421874 2.558593-7.316407 2.277343-15.324219-.792969-22.441407-1.449219-4.460937.972656-9.253906 5.421875-10.738281 4.449218-1.480469 9.257812.90625 10.773437 5.34375 3.378907 9.15625 4.1875 19.0625 2.339844 28.644531 6.503906 6.71875 9.882813 15.863281 9.308594 25.199219 13.394531-1.660156 26.9375-1.832031 40.371093-.511719 3.074219.179688 5.816407 2.007813 7.167969 4.777344 1.351563 2.769531 1.105469 6.050781-.648437 8.585937-1.75 2.539063-4.730469 3.933594-7.800782 3.652344-35.21875-2.65625-45.390624 2.628906-45.488281 2.679688-1.355469.957031-2.972656 1.472656-4.632812 1.472656zm0 0"/><path d="m70.507812 418.058594c-2.957031-.003906-5.699218-1.535156-7.253906-4.050782-1.554687-2.515624-1.691406-5.65625-.371094-8.300781 10.046876-20.09375 22.785157-32.085937 37.871094-35.644531 12.015625-2.515625 24.535156.027344 34.617188 7.035156 3.699218 2.839844 4.433594 8.125 1.648437 11.867188-2.785156 3.738281-8.058593 4.550781-11.839843 1.820312-6.082032-4.046875-13.523438-5.511718-20.6875-4.070312-9.851563 2.410156-18.714844 11.367187-26.34375 26.621094-1.445313 2.894531-4.40625 4.722656-7.640626 4.722656zm0 0"/><path d="m130.25 400.988281c-4.714844 0-8.535156-3.820312-8.535156-8.53125-.480469-11.265625 3.898437-22.191406 12.023437-30.007812 11.242188-8.960938 25.390625-13.460938 39.746094-12.636719 4.664063.355469 8.171875 4.398438 7.863281 9.066406-.304687 4.667969-4.3125 8.21875-8.980468 7.960938-9.679688-.535156-19.242188 2.339844-27.023438 8.121094-4.601562 4.617187-6.992188 10.992187-6.5625 17.496093 0 2.261719-.898438 4.433594-2.496094 6.035157-1.601562 1.597656-3.773437 2.496093-6.035156 2.496093zm0 0"/><path d="m69.132812 126.046875c-2.402343.160156-4.769531-.652344-6.5625-2.261719-1.796874-1.605468-2.863281-3.871094-2.964843-6.277344-.078125-2.222656.746093-4.386718 2.289062-5.992187 1.539063-1.609375 3.667969-2.523437 5.894531-2.535156h.90625c11.722657 0 17.269532-1.28125 19.144532-8.734375 3.171875-10.164063-1.699219-21.101563-11.375-25.546875-4.015625-2.464844-5.277344-7.71875-2.8125-11.738281 2.464844-4.015626 7.722656-5.277344 11.738281-2.8125 15.984375 8.414062 23.90625 26.855468 19.003906 44.238281-5.324219 21.191406-25.816406 21.660156-35.261719 21.660156zm0 0"/><path d="m157.277344 188.765625c-18.601563-1.632813-35.296875-12.070313-44.917969-28.074219-10.730469-14.433594-9.316406-34.539062 3.328125-47.328125 5.894531-7.214843 14.617188-11.53125 23.925781-11.847656 11.335938.367187 18.917969 9 25.601563 16.613281 3.207031 4.195313 7.101562 7.8125 11.519531 10.699219 12.800781 6.246094 21.160156 18.996094 21.78125 33.230469 0 4.414062-3.0625 15.699218-31.433594 25.160156-3.164062 1.042969-6.472656 1.5625-9.804687 1.546875zm-18.367188-70.195313c-4.402344.917969-8.351562 3.339844-11.160156 6.855469-6.824219 7.3125-7.195312 18.539063-.875 26.289063 8.292969 13.410156 24.863281 22.59375 34.808594 19.3125 7.3125-1.699219 14.070312-5.242188 19.632812-10.289063-1.039062-7.242187-5.621094-13.484375-12.21875-16.648437-6.464844-3.777344-12.136718-8.769532-16.703125-14.703125-4.617187-5.253907-9.390625-10.6875-13.332031-10.816407zm0 0"/><path d="m70.515625 204.722656c-5.40625 0-12.984375-2.730468-28.160156-22.953125-2.457031-3.277343-2.242188-7.835937.511719-10.863281-2.148438-1.597656-3.417969-4.121094-3.414063-6.800781 0-1.417969.339844-2.8125.988281-4.070313 7.863282-14.902344 16.632813-22.710937 26.070313-23.203125 8.253906.039063 15.808593 4.632813 19.632812 11.945313 13.085938 19.625 8.675781 34.441406 4.886719 41.523437-3.8125 8.09375-11.609375 13.574219-20.515625 14.421875zm-16.238281-34.921875c.65625.492188 1.242187 1.070313 1.730468 1.726563 4.046876 6.121094 9.078126 11.523437 14.894532 15.996094 2.550781-1.410157 4.535156-3.664063 5.613281-6.375 2.640625-7.898438.902344-16.605469-4.5625-22.890626-2.171875-3.242187-3.777344-4.398437-4.554687-4.378906-1.167969.058594-5.808594 2.746094-11.722657 13.863282-.363281.75-.835937 1.445312-1.398437 2.058593zm0 0"/><path d="m193.554688 289.117188c-4.492188 0-8.214844-3.484376-8.511719-7.96875-.296875-4.480469 2.933593-8.425782 7.386719-9.023438 17.101562-2.292969 47.367187-10.082031 57.894531-36.4375 4.84375-12.101562 2.953125-15.164062 2.933593-15.1875-3.878906-4.097656-29.78125 4.730469-38.296874 7.625l-5.210938 1.761719c-30.257812 10.09375-58.734375-17.925781-59.933594-19.128907-3.234375-3.347656-3.1875-8.671874.105469-11.960937 3.289063-3.292969 8.613281-3.339844 11.960937-.105469.207032.199219 22.273438 21.753906 42.464844 15.003906l5.121094-1.730468c20.976562-7.144532 44.757812-15.238282 56.171875-3.210938 9.738281 10.261719 2.816406 27.582032.535156 33.277344-13.742187 34.402344-50.675781 44.222656-71.46875 47.015625-.382812.050781-.769531.074219-1.152343.070313zm0 0"/><path d="m36.558594 251.914062c-3.605469 0-6.824219-2.265624-8.039063-5.660156-1.214843-3.398437-.164062-7.1875 2.625-9.476562l19.882813-16.296875c3.648437-2.9375 8.984375-2.386719 11.953125 1.238281 2.96875 3.621094 2.460937 8.960938-1.136719 11.960938l-19.882812 16.300781c-1.523438 1.25-3.433594 1.933593-5.402344 1.933593zm0 0"/><path d="m64.714844 262.324219c-3.621094.003906-6.847656-2.277344-8.054688-5.6875-1.207031-3.410157-.132812-7.210938 2.683594-9.484375l17.832031-14.421875c2.371094-1.917969 5.585938-2.421875 8.433594-1.328125s4.890625 3.625 5.367187 6.636718c.472657 3.011719-.695312 6.050782-3.066406 7.96875l-17.832031 14.421876c-1.519531 1.226562-3.414063 1.894531-5.363281 1.894531zm0 0"/><path d="m90.484375 275.207031c-3.613281.003907-6.835937-2.265625-8.046875-5.667969-1.210938-3.402343-.148438-7.199218 2.652344-9.480468l21.671875-17.664063c3.65625-2.976562 9.03125-2.429687 12.007812 1.226563 2.980469 3.652344 2.429688 9.027344-1.222656 12.007812l-21.675781 17.664063c-1.519532 1.238281-3.421875 1.917969-5.386719 1.914062zm0 0"/><path d="m207.050781 409.226562c-4.714843 0-8.535156-3.820312-8.535156-8.53125 0-4.714843 3.820313-8.535156 8.535156-8.535156 22.230469 0 42.257813-8.277344 63.460938-17.042968 6.90625-2.855469 13.824219-5.714844 20.847656-8.296876 21.519531-7.917968 31.609375-30.171874 41.367187-51.6875 1.449219-3.191406 2.882813-6.351562 4.335938-9.433593 3.644531-7.996094 5.28125-12.273438 6.003906-14.414063-2.195312-1-4.609375-1.410156-7.011718-1.195312-8.25 1.019531-15.507813 5.941406-19.503907 13.226562-3.433593 5.457032-7.515625 10.472656-12.160156 14.941406-1.570313 1.445313-3.070313 2.96875-4.484375 4.566407-10.082031 10.949219-22.21875 19.808593-35.722656 26.066406-14.679688 5.9375-30.613282 8.113281-46.347656 6.324219-4.617188-.496094-7.996094-4.589844-7.597657-9.21875.402344-4.628906 4.429688-8.089844 9.066407-7.78125 12.609374 1.625 25.425781.042968 37.261718-4.597656 11.644532-5.335938 22.109375-12.933594 30.785156-22.355469 1.71875-1.898438 3.636719-3.902344 5.546876-5.625 3.597656-3.535157 6.761718-7.480469 9.425781-11.757813 13.488281-20.226562 32.160156-23.175781 44.070312-19.570312 7.714844 1.519531 13.511719 7.921875 14.253907 15.75 0 1.890625 0 5.058594-8.105469 22.824218-1.460938 3.101563-2.859375 6.1875-4.265625 9.296876-10.6875 23.566406-22.800782 50.277343-51.023438 60.65625-6.804687 2.503906-13.519531 5.285156-20.214844 8.050781-21.816406 9.015625-44.363281 18.339843-69.988281 18.339843zm0 0"/><path d="m395.855469 194.585938-.230469-.003907c-4.710938-.125-8.425781-4.042969-8.304688-8.75.015626-.734375 1.398438-73.671875-38.875-92.871093-2.773437-1.296876-4.640624-3.984376-4.890624-7.035157-.25-3.054687 1.15625-6.007812 3.683593-7.738281 2.527344-1.730469 5.789063-1.972656 8.546875-.632812 50.292969 23.976562 48.683594 105.28125 48.589844 108.730468-.125 4.621094-3.902344 8.300782-8.519531 8.300782zm0 0"/></g><path d="m2.6875 506.089844c-2.296875-8.296875-2.820312-16.980469-1.542969-25.492188.894531-7.714844 2.339844-15.355468 4.324219-22.859375 1.90625-7.390625 4.078125-14.648437 6.519531-21.777343l3.808594-10.640626 3.519531-8.96875.039063-9.707031c.039062-3.832031.09375-7.71875.351562-11.742187.246094-6.84375 1.453125-13.617188 3.582031-20.125 2.351563-6.394532 5.539063-12.453125 9.476563-18.015625 7.296875-10.5625 15.003906-19.847657 22.554687-29.367188l13.324219 10.660157c-7.519531 9.460937-15.273437 18.882812-21.753906 28.285156-6.429687 8.535156-9.984375 18.894531-10.148437 29.582031-.226563 3.511719-.285157 7.183594-.320313 10.90625l-.039063 12.957031-2.679687 6.527344-1.929687 5.015625-3.628907 10.132813c-2.316406 6.789062-4.367187 13.636718-6.136719 20.492187-1.78125 6.722656-3.082031 13.558594-3.890624 20.464844-.964844 6.082031-.703126 12.292969.765624 18.273437zm0 0" fill="#fff"/><path d="m13.386719 461.273438c-2.246094-.546876-4.613281-.144532-6.554688 1.113281-1.9375 1.257812-3.269531 3.257812-3.6875 5.53125-3.207031 12.503906-3.363281 25.59375-.453125 38.171875l16.191406-5.398438c-1.847656-9.757812-1.507812-19.804687.996094-29.417968.796875-4.519532-2.039062-8.886719-6.492187-10zm0 0" fill="#428dff"/><path d="m68.644531 338.054688-13.324219-10.660157c-7.550781 9.519531-15.257812 18.804688-22.554687 29.367188-3.9375 5.5625-7.121094 11.621093-9.472656 18.015625-2.128907 6.507812-3.335938 13.28125-3.585938 20.125-.21875 3.054687-.226562 5.941406-.324219 8.898437-.074218 4.714844 3.6875 8.597657 8.398438 8.671875 4.714844.074219 8.59375-3.6875 8.667969-8.398437.089843-2.730469.101562-5.53125.296875-8.152344.164062-10.6875 3.71875-21.046875 10.148437-29.582031 6.476563-9.402344 14.234375-18.824219 21.75-28.285156zm0 0" fill="#428dff"/><path d="m12.679688 433.964844c-.730469 2.183594-.597657 4.566406.371093 6.65625l.890625 1.386718c.347656.457032.757813.863282 1.21875 1.210938.382813.382812.824219.707031 1.308594.957031.507812.261719 1.03125.492188 1.570312.679688 2.160157.648437 4.484376.480469 6.53125-.46875 4.0625-2.128907 5.769532-7.054688 3.894532-11.246094-.507813-.996094-1.191406-1.886719-2.027344-2.632813-.8125-.765624-1.761719-1.367187-2.804688-1.773437-2.128906-.765625-4.472656-.679687-6.542968.238281-2.054688 1.039063-3.632813 2.828125-4.410156 4.992188zm0 0" fill="#428dff"/></svg>